<svg width="123" height="41" viewBox="0 0 123 41" fill="none" xmlns="http://www.w3.org/2000/svg">
<g clip-path="url(#clip0_456_18759)">
<path d="M15.5296 0.50354H16.6194C20.4028 0.585788 24.1245 2.10737 26.7976 4.80098C25.8106 5.80851 24.8031 6.77492 23.8366 7.78246C22.3356 6.42537 20.5262 5.37671 18.5522 5.0066C15.6324 4.38974 12.4865 4.94491 10.0396 6.61043C7.36655 8.35819 5.5571 11.3191 5.16642 14.4856C4.73462 17.6111 5.61879 20.901 7.65442 23.3273C9.6078 25.6919 12.5893 27.1723 15.6736 27.2752C18.5522 27.4396 21.5543 26.5555 23.6516 24.5404C25.2965 23.1216 26.0573 20.9626 26.3041 18.8653C22.8908 18.8653 19.4775 18.8859 16.0642 18.8653V14.6296H30.437C31.1772 19.1738 30.108 24.2937 26.6536 27.5425C24.3507 29.8454 21.1636 31.2025 17.9148 31.4698C14.7688 31.7782 11.5201 31.1819 8.72364 29.6603C5.37204 27.8715 2.69899 24.8488 1.38303 21.2916C0.149316 18.0223 0.128754 14.3211 1.28022 11.0312C2.32888 8.0292 4.34395 5.37671 6.93475 3.52614C9.42274 1.69613 12.4453 0.688597 15.5296 0.50354Z" fill="#3780FF"/>
<path d="M97.9829 1.57275H102.383V30.9352C100.923 30.9352 99.4428 30.9557 97.9829 30.9146C98.0035 21.1477 97.9829 11.3602 97.9829 1.57275V1.57275Z" fill="#38B137"/>
<path d="M40.2245 11.7509C42.9387 11.2368 45.879 11.8126 48.1203 13.437C50.1559 14.8763 51.5747 17.1381 52.0065 19.6055C52.5617 22.4636 51.8626 25.589 50.012 27.8509C48.0175 30.38 44.7481 31.7371 41.561 31.5314C38.6413 31.3669 35.8037 29.9071 34.0765 27.5219C32.1231 24.8899 31.6502 21.271 32.7194 18.1868C33.7886 14.8763 36.8112 12.3472 40.2245 11.7509V11.7509ZM40.8414 15.6576C39.731 15.9455 38.7029 16.5829 37.9627 17.4877C35.9682 19.8728 36.0916 23.759 38.2917 25.9797C39.546 27.2546 41.4377 27.8509 43.1854 27.5013C44.8098 27.2134 46.2286 26.1237 47.0099 24.6843C48.367 22.2375 47.9764 18.8653 45.8996 16.953C44.5631 15.7193 42.6097 15.2053 40.8414 15.6576Z" fill="#FA3913"/>
<path d="M62.0201 11.7509C65.125 11.1546 68.5177 12.0182 70.8412 14.1978C74.6246 17.5905 75.0358 23.9441 71.8076 27.8509C69.8542 30.3183 66.6877 31.6754 63.5623 31.5315C60.5808 31.4492 57.6404 29.9688 55.8721 27.5219C53.8776 24.8283 53.4458 21.1272 54.5767 17.9812C55.7076 14.7735 58.6685 12.3267 62.0201 11.7509V11.7509ZM62.637 15.6577C61.5266 15.9456 60.4985 16.583 59.7583 17.4671C57.7844 19.8112 57.8666 23.6357 59.9845 25.877C61.2388 27.2135 63.1921 27.8715 65.0016 27.5014C66.6054 27.1929 68.0448 26.1237 68.8261 24.6844C70.1626 22.2169 69.772 18.8448 67.6746 16.9325C66.3381 15.6988 64.3847 15.2053 62.637 15.6577Z" fill="#FCBD06"/>
<path d="M80.5053 12.9435C82.8699 11.4631 86.0159 11.0519 88.5656 12.3267C89.3675 12.6762 90.0255 13.2725 90.6629 13.8688C90.6835 13.3137 90.6629 12.7379 90.6835 12.1622C92.0611 12.1828 93.4388 12.1622 94.837 12.1828V30.3184C94.8164 33.0531 94.1173 35.9523 92.1434 37.9468C89.9844 40.147 86.6739 40.8255 83.6924 40.3731C80.5053 39.9002 77.7295 37.5767 76.4957 34.6364C77.7295 34.0401 79.0249 33.5672 80.2997 33.012C81.0194 34.6981 82.4793 36.1374 84.3093 36.4664C86.1393 36.7954 88.2572 36.343 89.4497 34.8214C90.7246 33.2587 90.7246 31.1203 90.6629 29.208C89.717 30.1333 88.6273 30.9558 87.3113 31.2642C84.4532 32.0661 81.3072 31.0792 79.1071 29.1463C76.8864 27.2135 75.5705 24.232 75.6938 21.2711C75.7555 17.9195 77.6472 14.6913 80.5053 12.9435V12.9435ZM84.7616 15.5755C83.5074 15.7811 82.3353 16.4802 81.5334 17.4466C79.6006 19.7495 79.6006 23.4301 81.554 25.6919C82.6643 27.0285 84.4532 27.7687 86.1804 27.5836C87.8048 27.4191 89.3058 26.391 90.1077 24.9723C91.4648 22.5665 91.2386 19.2972 89.4086 17.1999C88.2777 15.9045 86.4683 15.267 84.7616 15.5755V15.5755Z" fill="#3780FF"/>
<path d="M107.668 13.9921C110.135 11.6892 113.939 10.9078 117.106 12.121C120.108 13.2519 122.02 16.11 122.986 19.0503C118.524 20.9009 114.083 22.7309 109.621 24.5815C110.238 25.7535 111.184 26.8227 112.459 27.2545C114.247 27.892 116.386 27.6658 117.887 26.4732C118.483 26.0208 118.956 25.4245 119.408 24.8488C120.539 25.6096 121.67 26.3498 122.801 27.1106C121.197 29.5163 118.504 31.2024 115.604 31.4697C112.397 31.8604 108.984 30.6267 106.907 28.1181C103.494 24.1703 103.823 17.5493 107.668 13.9921V13.9921ZM109.868 17.7961C109.169 18.8036 108.881 20.0373 108.901 21.2505C111.883 20.0167 114.864 18.783 117.846 17.5288C117.352 16.3773 116.16 15.6782 114.947 15.4931C112.993 15.1436 110.958 16.1922 109.868 17.7961V17.7961Z" fill="#FA3913"/>
</g>
<defs>
<clipPath id="clip0_456_18759">
<rect width="122.549" height="40" fill="white" transform="translate(0.437195 0.5)"/>
</clipPath>
</defs>
</svg>
